<mxfile host="app.diagrams.net" modified="2024-06-08T19:05:44.040Z" agent="Mozilla/5.0 (Windows NT 10.0; Win64; x64) AppleWebKit/537.36 (KHTML, like Gecko) Chrome/125.0.0.0 Safari/537.36" etag="3_-sL_Bzg-NvRvm2Iuqt" version="24.5.2" type="device">
  <diagram id="C5RBs43oDa-KdzZeNtuy" name="Page-1">
    <mxGraphModel dx="1880" dy="980" grid="1" gridSize="10" guides="1" tooltips="1" connect="1" arrows="1" fold="1" page="1" pageScale="1" pageWidth="827" pageHeight="1169" math="0" shadow="0">
      <root>
        <mxCell id="WIyWlLk6GJQsqaUBKTNV-0" />
        <mxCell id="WIyWlLk6GJQsqaUBKTNV-1" parent="WIyWlLk6GJQsqaUBKTNV-0" />
        <mxCell id="etu_yVzjZ-7cX56zxMjq-0" value="" style="rounded=0;whiteSpace=wrap;html=1;" parent="WIyWlLk6GJQsqaUBKTNV-1" vertex="1">
          <mxGeometry x="50" width="390" height="360" as="geometry" />
        </mxCell>
        <mxCell id="etu_yVzjZ-7cX56zxMjq-1" value="Usuario" style="shape=umlActor;verticalLabelPosition=bottom;verticalAlign=top;html=1;outlineConnect=0;" parent="WIyWlLk6GJQsqaUBKTNV-1" vertex="1">
          <mxGeometry x="10" y="155" width="30" height="60" as="geometry" />
        </mxCell>
        <mxCell id="n1ZPY7lHBbJGxp2uvFN1-15" style="rounded=0;orthogonalLoop=1;jettySize=auto;html=1;entryX=1;entryY=0.5;entryDx=0;entryDy=0;dashed=1;" edge="1" parent="WIyWlLk6GJQsqaUBKTNV-1" source="n1ZPY7lHBbJGxp2uvFN1-3" target="n1ZPY7lHBbJGxp2uvFN1-5">
          <mxGeometry relative="1" as="geometry" />
        </mxCell>
        <mxCell id="n1ZPY7lHBbJGxp2uvFN1-3" value="Buscar" style="ellipse;whiteSpace=wrap;html=1;" vertex="1" parent="WIyWlLk6GJQsqaUBKTNV-1">
          <mxGeometry x="210" y="10" width="50" height="35" as="geometry" />
        </mxCell>
        <mxCell id="n1ZPY7lHBbJGxp2uvFN1-4" value="Servicio web" style="text;html=1;align=center;verticalAlign=middle;whiteSpace=wrap;rounded=0;" vertex="1" parent="WIyWlLk6GJQsqaUBKTNV-1">
          <mxGeometry x="50" width="90" height="30" as="geometry" />
        </mxCell>
        <mxCell id="n1ZPY7lHBbJGxp2uvFN1-8" value="" style="edgeStyle=orthogonalEdgeStyle;rounded=0;orthogonalLoop=1;jettySize=auto;html=1;dashed=1;" edge="1" parent="WIyWlLk6GJQsqaUBKTNV-1" source="n1ZPY7lHBbJGxp2uvFN1-5" target="n1ZPY7lHBbJGxp2uvFN1-6">
          <mxGeometry relative="1" as="geometry" />
        </mxCell>
        <mxCell id="n1ZPY7lHBbJGxp2uvFN1-31" style="rounded=0;orthogonalLoop=1;jettySize=auto;html=1;entryX=0;entryY=0.5;entryDx=0;entryDy=0;endArrow=none;endFill=0;" edge="1" parent="WIyWlLk6GJQsqaUBKTNV-1" source="n1ZPY7lHBbJGxp2uvFN1-5" target="etu_yVzjZ-7cX56zxMjq-0">
          <mxGeometry relative="1" as="geometry" />
        </mxCell>
        <mxCell id="n1ZPY7lHBbJGxp2uvFN1-5" value="Login" style="ellipse;whiteSpace=wrap;html=1;" vertex="1" parent="WIyWlLk6GJQsqaUBKTNV-1">
          <mxGeometry x="110" y="60" width="50" height="40" as="geometry" />
        </mxCell>
        <mxCell id="n1ZPY7lHBbJGxp2uvFN1-34" style="rounded=0;orthogonalLoop=1;jettySize=auto;html=1;entryX=0;entryY=0.5;entryDx=0;entryDy=0;endArrow=none;endFill=0;" edge="1" parent="WIyWlLk6GJQsqaUBKTNV-1" source="n1ZPY7lHBbJGxp2uvFN1-6" target="etu_yVzjZ-7cX56zxMjq-0">
          <mxGeometry relative="1" as="geometry" />
        </mxCell>
        <mxCell id="n1ZPY7lHBbJGxp2uvFN1-6" value="Registrarse" style="ellipse;whiteSpace=wrap;html=1;" vertex="1" parent="WIyWlLk6GJQsqaUBKTNV-1">
          <mxGeometry x="100" y="150" width="70" height="50" as="geometry" />
        </mxCell>
        <mxCell id="n1ZPY7lHBbJGxp2uvFN1-9" value="&lt;font style=&quot;font-size: 10px;&quot;&gt;Include&lt;/font&gt;" style="text;html=1;align=center;verticalAlign=middle;whiteSpace=wrap;rounded=0;rotation=90;" vertex="1" parent="WIyWlLk6GJQsqaUBKTNV-1">
          <mxGeometry x="130" y="110" width="40" height="30" as="geometry" />
        </mxCell>
        <mxCell id="n1ZPY7lHBbJGxp2uvFN1-14" value="&lt;font style=&quot;font-size: 10px;&quot;&gt;Include&lt;/font&gt;" style="text;html=1;align=center;verticalAlign=middle;whiteSpace=wrap;rounded=0;rotation=-30;" vertex="1" parent="WIyWlLk6GJQsqaUBKTNV-1">
          <mxGeometry x="170" y="30" width="40" height="30" as="geometry" />
        </mxCell>
        <mxCell id="n1ZPY7lHBbJGxp2uvFN1-36" style="rounded=0;orthogonalLoop=1;jettySize=auto;html=1;endArrow=none;endFill=0;" edge="1" parent="WIyWlLk6GJQsqaUBKTNV-1" source="n1ZPY7lHBbJGxp2uvFN1-16">
          <mxGeometry relative="1" as="geometry">
            <mxPoint x="50" y="180" as="targetPoint" />
          </mxGeometry>
        </mxCell>
        <mxCell id="n1ZPY7lHBbJGxp2uvFN1-16" value="Modo oscuro" style="ellipse;whiteSpace=wrap;html=1;" vertex="1" parent="WIyWlLk6GJQsqaUBKTNV-1">
          <mxGeometry x="95" y="310" width="80" height="40" as="geometry" />
        </mxCell>
        <mxCell id="n1ZPY7lHBbJGxp2uvFN1-42" style="edgeStyle=orthogonalEdgeStyle;rounded=0;orthogonalLoop=1;jettySize=auto;html=1;endArrow=none;endFill=0;" edge="1" parent="WIyWlLk6GJQsqaUBKTNV-1" source="n1ZPY7lHBbJGxp2uvFN1-17">
          <mxGeometry relative="1" as="geometry">
            <mxPoint x="225" y="200" as="targetPoint" />
          </mxGeometry>
        </mxCell>
        <mxCell id="n1ZPY7lHBbJGxp2uvFN1-17" value="Mapa" style="ellipse;whiteSpace=wrap;html=1;" vertex="1" parent="WIyWlLk6GJQsqaUBKTNV-1">
          <mxGeometry x="255" y="180" width="50" height="40" as="geometry" />
        </mxCell>
        <mxCell id="n1ZPY7lHBbJGxp2uvFN1-25" style="rounded=0;orthogonalLoop=1;jettySize=auto;html=1;dashed=1;" edge="1" parent="WIyWlLk6GJQsqaUBKTNV-1" source="n1ZPY7lHBbJGxp2uvFN1-18" target="n1ZPY7lHBbJGxp2uvFN1-17">
          <mxGeometry relative="1" as="geometry" />
        </mxCell>
        <mxCell id="n1ZPY7lHBbJGxp2uvFN1-30" style="edgeStyle=orthogonalEdgeStyle;rounded=0;orthogonalLoop=1;jettySize=auto;html=1;entryX=1;entryY=0.5;entryDx=0;entryDy=0;curved=1;dashed=1;" edge="1" parent="WIyWlLk6GJQsqaUBKTNV-1" source="n1ZPY7lHBbJGxp2uvFN1-18" target="n1ZPY7lHBbJGxp2uvFN1-5">
          <mxGeometry relative="1" as="geometry">
            <Array as="points">
              <mxPoint x="380" y="80" />
            </Array>
          </mxGeometry>
        </mxCell>
        <mxCell id="n1ZPY7lHBbJGxp2uvFN1-18" value="Seleccionar" style="ellipse;whiteSpace=wrap;html=1;" vertex="1" parent="WIyWlLk6GJQsqaUBKTNV-1">
          <mxGeometry x="365" y="180" width="70" height="40" as="geometry" />
        </mxCell>
        <mxCell id="n1ZPY7lHBbJGxp2uvFN1-23" style="rounded=0;orthogonalLoop=1;jettySize=auto;html=1;dashed=1;" edge="1" parent="WIyWlLk6GJQsqaUBKTNV-1" source="n1ZPY7lHBbJGxp2uvFN1-19" target="n1ZPY7lHBbJGxp2uvFN1-5">
          <mxGeometry relative="1" as="geometry" />
        </mxCell>
        <mxCell id="n1ZPY7lHBbJGxp2uvFN1-37" style="edgeStyle=orthogonalEdgeStyle;rounded=0;orthogonalLoop=1;jettySize=auto;html=1;entryX=0;entryY=0.5;entryDx=0;entryDy=0;endArrow=none;endFill=0;" edge="1" parent="WIyWlLk6GJQsqaUBKTNV-1" source="n1ZPY7lHBbJGxp2uvFN1-19" target="n1ZPY7lHBbJGxp2uvFN1-20">
          <mxGeometry relative="1" as="geometry">
            <Array as="points">
              <mxPoint x="225" y="148" />
              <mxPoint x="225" y="305" />
            </Array>
          </mxGeometry>
        </mxCell>
        <mxCell id="n1ZPY7lHBbJGxp2uvFN1-19" value="Sobre nosotros" style="ellipse;whiteSpace=wrap;html=1;" vertex="1" parent="WIyWlLk6GJQsqaUBKTNV-1">
          <mxGeometry x="250" y="130" width="90" height="35" as="geometry" />
        </mxCell>
        <mxCell id="n1ZPY7lHBbJGxp2uvFN1-20" value="Home" style="ellipse;whiteSpace=wrap;html=1;" vertex="1" parent="WIyWlLk6GJQsqaUBKTNV-1">
          <mxGeometry x="245" y="290" width="50" height="30" as="geometry" />
        </mxCell>
        <mxCell id="n1ZPY7lHBbJGxp2uvFN1-40" style="edgeStyle=orthogonalEdgeStyle;rounded=0;orthogonalLoop=1;jettySize=auto;html=1;endArrow=none;endFill=0;" edge="1" parent="WIyWlLk6GJQsqaUBKTNV-1" source="n1ZPY7lHBbJGxp2uvFN1-21">
          <mxGeometry relative="1" as="geometry">
            <mxPoint x="230" y="250" as="targetPoint" />
          </mxGeometry>
        </mxCell>
        <mxCell id="n1ZPY7lHBbJGxp2uvFN1-21" value="Estrategias" style="ellipse;whiteSpace=wrap;html=1;" vertex="1" parent="WIyWlLk6GJQsqaUBKTNV-1">
          <mxGeometry x="245" y="230" width="80" height="40" as="geometry" />
        </mxCell>
        <mxCell id="n1ZPY7lHBbJGxp2uvFN1-35" style="rounded=0;orthogonalLoop=1;jettySize=auto;html=1;entryX=0;entryY=0.5;entryDx=0;entryDy=0;endArrow=none;endFill=0;" edge="1" parent="WIyWlLk6GJQsqaUBKTNV-1" source="n1ZPY7lHBbJGxp2uvFN1-22" target="etu_yVzjZ-7cX56zxMjq-0">
          <mxGeometry relative="1" as="geometry" />
        </mxCell>
        <mxCell id="n1ZPY7lHBbJGxp2uvFN1-43" style="edgeStyle=orthogonalEdgeStyle;rounded=0;orthogonalLoop=1;jettySize=auto;html=1;endArrow=none;endFill=0;" edge="1" parent="WIyWlLk6GJQsqaUBKTNV-1" source="n1ZPY7lHBbJGxp2uvFN1-22">
          <mxGeometry relative="1" as="geometry">
            <mxPoint x="225" y="220" as="targetPoint" />
            <Array as="points">
              <mxPoint x="200" y="250" />
              <mxPoint x="200" y="220" />
            </Array>
          </mxGeometry>
        </mxCell>
        <mxCell id="n1ZPY7lHBbJGxp2uvFN1-22" value="Acceder" style="ellipse;whiteSpace=wrap;html=1;" vertex="1" parent="WIyWlLk6GJQsqaUBKTNV-1">
          <mxGeometry x="100" y="230" width="80" height="40" as="geometry" />
        </mxCell>
        <mxCell id="n1ZPY7lHBbJGxp2uvFN1-24" value="&lt;font style=&quot;font-size: 10px;&quot;&gt;Include&lt;/font&gt;" style="text;html=1;align=center;verticalAlign=middle;whiteSpace=wrap;rounded=0;rotation=30;" vertex="1" parent="WIyWlLk6GJQsqaUBKTNV-1">
          <mxGeometry x="205" y="90" width="40" height="30" as="geometry" />
        </mxCell>
        <mxCell id="n1ZPY7lHBbJGxp2uvFN1-26" value="&lt;span style=&quot;font-size: 10px;&quot;&gt;Extend&lt;/span&gt;" style="text;html=1;align=center;verticalAlign=middle;whiteSpace=wrap;rounded=0;rotation=0;" vertex="1" parent="WIyWlLk6GJQsqaUBKTNV-1">
          <mxGeometry x="318.5" y="170" width="40" height="30" as="geometry" />
        </mxCell>
        <mxCell id="n1ZPY7lHBbJGxp2uvFN1-28" value="&lt;font style=&quot;font-size: 10px;&quot;&gt;Include&lt;/font&gt;" style="text;html=1;align=center;verticalAlign=middle;whiteSpace=wrap;rounded=0;rotation=20;" vertex="1" parent="WIyWlLk6GJQsqaUBKTNV-1">
          <mxGeometry x="295" y="75" width="40" height="30" as="geometry" />
        </mxCell>
      </root>
    </mxGraphModel>
  </diagram>
</mxfile>
